<?xml version="1.0" standalone="no"?><svg xmlns="http://www.w3.org/2000/svg" viewBox="0 0 1440 320"><path fill="#333" fill-opacity="1" d="M0,0L0,192L36.9,192L36.9,128L73.8,128L73.8,256L110.8,256L110.8,224L147.7,224L147.7,96L184.6,96L184.6,192L221.5,192L221.5,0L258.5,0L258.5,64L295.4,64L295.4,32L332.3,32L332.3,32L369.2,32L369.2,192L406.2,192L406.2,96L443.1,96L443.1,128L480,128L480,224L516.9,224L516.9,224L553.8,224L553.8,32L590.8,32L590.8,256L627.7,256L627.7,160L664.6,160L664.6,224L701.5,224L701.5,160L738.5,160L738.5,224L775.4,224L775.4,96L812.3,96L812.3,224L849.2,224L849.2,32L886.2,32L886.2,96L923.1,96L923.1,160L960,160L960,64L996.9,64L996.9,288L1033.8,288L1033.8,192L1070.8,192L1070.8,320L1107.7,320L1107.7,192L1144.6,192L1144.6,160L1181.5,160L1181.5,64L1218.5,64L1218.5,160L1255.4,160L1255.4,288L1292.3,288L1292.3,256L1329.2,256L1329.2,64L1366.2,64L1366.2,32L1403.1,32L1403.1,192L1440,192L1440,320L1403.1,320L1403.1,320L1366.2,320L1366.2,320L1329.2,320L1329.2,320L1292.3,320L1292.3,320L1255.4,320L1255.4,320L1218.5,320L1218.5,320L1181.5,320L1181.5,320L1144.6,320L1144.6,320L1107.7,320L1107.7,320L1070.8,320L1070.8,320L1033.8,320L1033.8,320L996.9,320L996.9,320L960,320L960,320L923.1,320L923.1,320L886.2,320L886.2,320L849.2,320L849.2,320L812.3,320L812.3,320L775.4,320L775.4,320L738.5,320L738.5,320L701.5,320L701.5,320L664.6,320L664.6,320L627.7,320L627.7,320L590.8,320L590.8,320L553.8,320L553.8,320L516.9,320L516.9,320L480,320L480,320L443.1,320L443.1,320L406.2,320L406.2,320L369.2,320L369.2,320L332.3,320L332.3,320L295.4,320L295.4,320L258.5,320L258.5,320L221.5,320L221.5,320L184.6,320L184.6,320L147.7,320L147.7,320L110.8,320L110.8,320L73.8,320L73.8,320L36.9,320L36.9,320L0,320L0,320Z"></path></svg>